<?xml version="1.0" standalone="no"?>
<!DOCTYPE svg PUBLIC "-//W3C//DTD SVG 20010904//EN"
 "http://www.w3.org/TR/2001/REC-SVG-20010904/DTD/svg10.dtd">
<svg version="1.0" xmlns="http://www.w3.org/2000/svg"
 width="80.000000pt" height="80.000000pt" viewBox="0 0 80.000000 80.000000"
 preserveAspectRatio="xMidYMid meet">
<metadata>
Created by potrace 1.13, written by Peter Selinger 2001-2015
</metadata>
<g transform="translate(0.000000,80.000000) scale(0.100000,-0.100000)"
fill="#000000" stroke="none">
<path d="M128 760 c-33 -36 -35 -60 -8 -85 19 -17 19 -18 -20 -63 -22 -24 -52
-70 -67 -101 -24 -49 -28 -68 -28 -146 0 -74 4 -97 23 -132 72 -136 207 -213
372 -213 173 0 312 84 378 228 20 45 24 65 21 130 -5 90 -35 162 -99 234 -39
45 -39 46 -20 63 11 10 20 26 20 36 0 27 -49 79 -74 79 -26 0 -56 -29 -56 -53
0 -9 -1 -17 -2 -17 -2 0 -25 7 -52 15 -62 19 -179 19 -231 0 -47 -17 -58 -18
-51 -6 9 15 -34 61 -57 61 -12 0 -34 -14 -49 -30z m375 -96 c25 -8 52 -23 59
-31 12 -14 11 -15 -9 -5 -12 7 -29 9 -38 6 -13 -5 -10 -12 18 -39 126 -122 89
-325 -70 -385 -53 -20 -58 -20 -109 -5 -103 30 -158 105 -158 215 0 74 17 115
71 171 29 30 32 37 18 43 -9 3 -26 1 -38 -4 -19 -9 -19 -8 2 7 59 44 170 56
254 27z"/>
<path d="M318 620 c-62 -33 -109 -113 -107 -184 0 -25 2 -27 8 -12 6 16 10 11
19 -27 15 -58 60 -110 114 -132 36 -14 49 -15 85 -4 68 19 128 99 134 179 1 8
5 4 10 -10 6 -18 7 -10 4 30 -12 136 -152 220 -267 160z m157 -44 c23 -15 59
-66 37 -52 -6 3 -12 0 -14 -6 -6 -18 -190 -17 -196 0 -2 7 -9 9 -15 5 -7 -4
-5 4 4 17 36 57 126 74 184 36z m-142 -178 c8 -18 22 -40 33 -48 14 -12 14 -9
-4 14 -41 54 -16 83 30 34 33 -35 43 -35 77 1 27 29 43 29 54 1 4 -12 6 -11 6
3 1 9 6 17 11 17 11 0 -12 -64 -32 -87 -56 -68 -192 -52 -233 26 -25 49 -20
71 15 71 24 0 32 -6 43 -32z"/>
</g>
</svg>
